<svg width="240" height="160" viewBox="0 0 240 160" fill="none" xmlns="http://www.w3.org/2000/svg">
  <!-- Card background -->
  <rect width="240" height="160" rx="8" fill="#2d3a4a"/>
  <!-- Top bar / chip -->
  <rect x="90" y="6" width="60" height="14" rx="2" fill="rgba(255,255,255,0.15)"/>
  <!-- Photo area -->
  <rect x="16" y="32" width="64" height="80" rx="4" fill="rgba(0,0,0,0.25)"/>
  <!-- Avatar circle -->
  <circle cx="48" cy="62" r="18" fill="rgba(255,255,255,0.15)"/>
  <!-- Shoulders -->
  <ellipse cx="48" cy="95" rx="24" ry="12" fill="rgba(255,255,255,0.1)"/>
  <!-- Text lines -->
  <rect x="96" y="38" width="120" height="8" rx="2" fill="rgba(255,255,255,0.2)"/>
  <rect x="96" y="54" width="90" height="8" rx="2" fill="rgba(255,255,255,0.15)"/>
  <rect x="96" y="70" width="110" height="8" rx="2" fill="rgba(255,255,255,0.2)"/>
  <rect x="96" y="86" width="70" height="8" rx="2" fill="rgba(255,255,255,0.15)"/>
  <rect x="96" y="102" width="100" height="8" rx="2" fill="rgba(255,255,255,0.12)"/>
  <!-- Bottom barcode -->
  <rect x="16" y="128" width="208" height="16" rx="2" fill="rgba(255,255,255,0.08)"/>
  <rect x="20" y="131" width="2" height="10" fill="rgba(255,255,255,0.2)"/>
  <rect x="25" y="131" width="1" height="10" fill="rgba(255,255,255,0.2)"/>
  <rect x="29" y="131" width="3" height="10" fill="rgba(255,255,255,0.2)"/>
  <rect x="35" y="131" width="1" height="10" fill="rgba(255,255,255,0.2)"/>
  <rect x="39" y="131" width="2" height="10" fill="rgba(255,255,255,0.2)"/>
  <rect x="44" y="131" width="3" height="10" fill="rgba(255,255,255,0.2)"/>
  <rect x="50" y="131" width="1" height="10" fill="rgba(255,255,255,0.2)"/>
  <rect x="54" y="131" width="2" height="10" fill="rgba(255,255,255,0.2)"/>
  <rect x="59" y="131" width="3" height="10" fill="rgba(255,255,255,0.2)"/>
  <rect x="65" y="131" width="1" height="10" fill="rgba(255,255,255,0.2)"/>
  <rect x="69" y="131" width="2" height="10" fill="rgba(255,255,255,0.2)"/>
  <rect x="74" y="131" width="3" height="10" fill="rgba(255,255,255,0.2)"/>
  <rect x="80" y="131" width="1" height="10" fill="rgba(255,255,255,0.2)"/>
</svg>
